<?xml version="1.0" encoding="UTF-8"?>
<svg id="Livello_1" xmlns="http://www.w3.org/2000/svg" version="1.1" xmlns:xlink="http://www.w3.org/1999/xlink" viewBox="0 0 24 24">
  <!-- Generator: Adobe Illustrator 29.2.0, SVG Export Plug-In . SVG Version: 2.1.0 Build 108)  -->
  <defs>
    <style>
      .st0, .st1 {
        fill: none;
      }

      .st1 {
        stroke: #5873ee;
        stroke-linecap: round;
        stroke-linejoin: round;
        stroke-width: 1.5px;
      }
    </style>
  </defs>
  <g>
    <path class="st1" d="M6.3239999,9.0679998c-2.4389999.3330002-4.3239999,2.4019995-4.3239999,4.9320002,0,2.7609997,2.2390003,5,5,5h11c2.2089996,0,4-1.7910004,4-4s-1.7910004-4-4-4c0-3.3140001-2.6859999-6-6-6-2.6370001,0-4.8709998,1.7030001-5.6760001,4.0679998Z"/>
    <path class="st1" d="M12,10.6000004v.8000002"/>
    <path class="st1" d="M12,14.6000004v.8000002"/>
    <path class="st1" d="M9.9200001,11.8000002l.6899996.3999996"/>
    <path class="st1" d="M13.3900003,13.8000002l.6899996.3999996"/>
    <path class="st1" d="M9.9200001,14.1999998l.6899996-.3999996"/>
    <path class="st1" d="M13.3900003,12.1999998l.6899996-.3999996"/>
    <path class="st1" d="M13.1314001,11.8685999c.6248388.6248388.6248388,1.6379004,0,2.2627401-.6248388.6248388-1.6379004.6248388-2.2627401,0-.6248388-.6248388-.6248388-1.6379004,0-2.2627401.6248388-.6248388,1.6379004-.6248388,2.2627401,0"/>
  </g>
  <path class="st0" d="M0,0h24v24H0V0Z"/>
</svg>