<?xml version="1.0" encoding="UTF-8"?>
<svg id="Livello_1" xmlns="http://www.w3.org/2000/svg" version="1.1" xmlns:xlink="http://www.w3.org/1999/xlink" viewBox="0 0 24 24">
  <!-- Generator: Adobe Illustrator 29.2.0, SVG Export Plug-In . SVG Version: 2.1.0 Build 108)  -->
  <defs>
    <style>
      .st0, .st1 {
        fill: none;
      }

      .st1 {
        stroke: #5873ee;
        stroke-linecap: round;
        stroke-linejoin: round;
        stroke-width: 1.5px;
      }
    </style>
  </defs>
  <g>
    <path class="st1" d="M16.8,5.2h-4.2c-.3,0-.6-.2-.8-.4l-.9-1.3c-.2-.3-.5-.4-.8-.4h-2.7c-1.1,0-2,.9-2,2v8c0,1.1.9,2,2,2h9.5c1.1,0,2-.9,2-2v-5.8c0-1.1-.9-2-2-2h-.1Z"/>
    <path class="st1" d="M12,15.3v3"/>
    <path class="st1" d="M13.6,20h6.4"/>
    <path class="st1" d="M4,20h6.5"/>
    <path class="st1" d="M13.1,18.9c.6.6.6,1.5,0,2.1s-1.5.6-2.1,0-.6-1.5,0-2.1,1.5-.6,2.1,0"/>
  </g>
  <path class="st0" d="M0,0h24v24H0V0Z"/>
</svg>